<mxfile host="app.diagrams.net" agent="Mozilla/5.0 (Windows NT 6.1; Win64; x64; rv:109.0) Gecko/20100101 Firefox/115.0" version="24.7.12">
  <diagram name="Page-1" id="SRp0yd-x6T0DlEYXHTgl">
    <mxGraphModel dx="612" dy="429" grid="1" gridSize="10" guides="1" tooltips="1" connect="1" arrows="1" fold="1" page="1" pageScale="1" pageWidth="850" pageHeight="1100" math="1" shadow="0">
      <root>
        <mxCell id="0" />
        <mxCell id="1" parent="0" />
        <mxCell id="TJ7lbxjONWvBOBtqPhef-1" value="" style="verticalLabelPosition=bottom;shadow=0;dashed=0;align=center;html=1;verticalAlign=top;shape=mxgraph.electrical.transistors.nmos;pointerEvents=1;strokeWidth=2;" vertex="1" parent="1">
          <mxGeometry x="380" y="110" width="60" height="100" as="geometry" />
        </mxCell>
        <mxCell id="TJ7lbxjONWvBOBtqPhef-3" value="" style="pointerEvents=1;verticalLabelPosition=bottom;shadow=0;dashed=0;align=center;html=1;verticalAlign=top;shape=mxgraph.electrical.resistors.resistor_1;direction=south;strokeWidth=2;" vertex="1" parent="1">
          <mxGeometry x="430" y="255" width="20" height="80" as="geometry" />
        </mxCell>
        <mxCell id="TJ7lbxjONWvBOBtqPhef-4" value="" style="verticalLabelPosition=bottom;shadow=0;dashed=0;align=center;html=1;verticalAlign=top;shape=stencil(pVXbcoMgFPwaHpsRyEUfU9u+9huIIZUJgoMkaf++R9E2qGGMzjjOnD26uy4cRDStclZyRCJWlTyziL4hQq7MCHaQABPo5A5MIlcqVnCHfJbcMCu0YhLwfVHCHbuHKmv0md/E0bZvC5VzI6zr3lrGuC7pO4r2ANYXTTOtFPgA0srr3PWBmwllPStCvThqsCQKbrlxeOv526t+2mqFtxuHIPLxnBoirzP0YjpPT1/sBDXcU5unBTCsncRTPm+1xaQfKV6iSmaqxsm4Kk0BebSlaHpg2fnL6Is6jnotWb17B42uXegr/7e18S2FUugIpFB3BG4a/hjWweUbp/A9JJNMZFJXPLBggA9yaNAH4dH0pA0PpHoSUrrjIaD6VPT+mOHFwU1jCHnYLfYwjcH3EC/OAa8XBxEvDqJnYk4S2D8Ld2SGix5FHD7Xxsak6z3c7c1rg3FpUPdbboBf);flipV=1;strokeWidth=2;" vertex="1" parent="1">
          <mxGeometry x="262" y="115" width="98" height="90" as="geometry" />
        </mxCell>
        <mxCell id="TJ7lbxjONWvBOBtqPhef-5" value="" style="endArrow=none;html=1;rounded=0;entryX=0;entryY=0.5;entryDx=0;entryDy=0;entryPerimeter=0;strokeWidth=2;" edge="1" parent="1" target="TJ7lbxjONWvBOBtqPhef-1">
          <mxGeometry width="50" height="50" relative="1" as="geometry">
            <mxPoint x="380" y="160" as="sourcePoint" />
            <mxPoint x="320" y="110" as="targetPoint" />
          </mxGeometry>
        </mxCell>
        <mxCell id="TJ7lbxjONWvBOBtqPhef-6" value="" style="endArrow=none;html=1;rounded=0;entryX=0;entryY=0.5;entryDx=0;entryDy=0;entryPerimeter=0;exitX=0;exitY=0.5;exitDx=0;exitDy=0;exitPerimeter=0;strokeWidth=2;" edge="1" parent="1" source="TJ7lbxjONWvBOBtqPhef-3">
          <mxGeometry width="50" height="50" relative="1" as="geometry">
            <mxPoint x="440" y="250" as="sourcePoint" />
            <mxPoint x="440" y="205" as="targetPoint" />
          </mxGeometry>
        </mxCell>
        <mxCell id="TJ7lbxjONWvBOBtqPhef-7" value="" style="pointerEvents=1;verticalLabelPosition=bottom;shadow=0;dashed=0;align=center;html=1;verticalAlign=top;shape=mxgraph.electrical.resistors.resistor_1;direction=south;strokeWidth=2;" vertex="1" parent="1">
          <mxGeometry x="430" y="355" width="20" height="80" as="geometry" />
        </mxCell>
        <mxCell id="TJ7lbxjONWvBOBtqPhef-8" value="" style="endArrow=none;html=1;rounded=0;strokeWidth=2;" edge="1" parent="1">
          <mxGeometry width="50" height="50" relative="1" as="geometry">
            <mxPoint x="162" y="130" as="sourcePoint" />
            <mxPoint x="262" y="130" as="targetPoint" />
          </mxGeometry>
        </mxCell>
        <mxCell id="TJ7lbxjONWvBOBtqPhef-9" value="" style="endArrow=none;html=1;rounded=0;strokeWidth=2;" edge="1" parent="1">
          <mxGeometry width="50" height="50" relative="1" as="geometry">
            <mxPoint x="200" y="190" as="sourcePoint" />
            <mxPoint x="262" y="190" as="targetPoint" />
          </mxGeometry>
        </mxCell>
        <mxCell id="TJ7lbxjONWvBOBtqPhef-10" value="" style="endArrow=none;html=1;rounded=0;strokeWidth=2;" edge="1" parent="1">
          <mxGeometry width="50" height="50" relative="1" as="geometry">
            <mxPoint x="200" y="190" as="sourcePoint" />
            <mxPoint x="200" y="345" as="targetPoint" />
          </mxGeometry>
        </mxCell>
        <mxCell id="TJ7lbxjONWvBOBtqPhef-11" value="" style="endArrow=none;html=1;rounded=0;entryX=0;entryY=0.5;entryDx=0;entryDy=0;entryPerimeter=0;strokeWidth=2;" edge="1" parent="1">
          <mxGeometry width="50" height="50" relative="1" as="geometry">
            <mxPoint x="200" y="345" as="sourcePoint" />
            <mxPoint x="440" y="345" as="targetPoint" />
          </mxGeometry>
        </mxCell>
        <mxCell id="TJ7lbxjONWvBOBtqPhef-12" value="" style="endArrow=none;html=1;rounded=0;exitX=0.063;exitY=0.5;exitDx=0;exitDy=0;exitPerimeter=0;strokeWidth=2;" edge="1" parent="1" source="TJ7lbxjONWvBOBtqPhef-7">
          <mxGeometry width="50" height="50" relative="1" as="geometry">
            <mxPoint x="390" y="380" as="sourcePoint" />
            <mxPoint x="440" y="330" as="targetPoint" />
          </mxGeometry>
        </mxCell>
        <mxCell id="TJ7lbxjONWvBOBtqPhef-13" value="" style="endArrow=none;html=1;rounded=0;strokeWidth=2;" edge="1" parent="1">
          <mxGeometry width="50" height="50" relative="1" as="geometry">
            <mxPoint x="360" y="159.96" as="sourcePoint" />
            <mxPoint x="380" y="159.96" as="targetPoint" />
          </mxGeometry>
        </mxCell>
        <mxCell id="TJ7lbxjONWvBOBtqPhef-14" value="" style="shape=waypoint;sketch=0;fillStyle=solid;size=6;pointerEvents=1;points=[];fillColor=none;resizable=0;rotatable=0;perimeter=centerPerimeter;snapToPoint=1;strokeWidth=2;" vertex="1" parent="1">
          <mxGeometry x="430" y="335" width="20" height="20" as="geometry" />
        </mxCell>
        <mxCell id="TJ7lbxjONWvBOBtqPhef-15" value="" style="endArrow=none;html=1;rounded=0;strokeWidth=2;" edge="1" parent="1" target="TJ7lbxjONWvBOBtqPhef-31">
          <mxGeometry width="50" height="50" relative="1" as="geometry">
            <mxPoint x="440" y="120" as="sourcePoint" />
            <mxPoint x="440" y="100" as="targetPoint" />
          </mxGeometry>
        </mxCell>
        <mxCell id="TJ7lbxjONWvBOBtqPhef-16" value="" style="pointerEvents=1;verticalLabelPosition=bottom;shadow=0;dashed=0;align=center;html=1;verticalAlign=top;shape=mxgraph.electrical.signal_sources.signal_ground;strokeWidth=2;" vertex="1" parent="1">
          <mxGeometry x="430" y="435" width="20" height="20" as="geometry" />
        </mxCell>
        <mxCell id="TJ7lbxjONWvBOBtqPhef-17" value="&lt;font style=&quot;font-size: 18px;&quot;&gt;$$R_1$$&lt;/font&gt;" style="text;html=1;align=center;verticalAlign=middle;whiteSpace=wrap;rounded=0;strokeWidth=2;" vertex="1" parent="1">
          <mxGeometry x="450" y="280" width="60" height="30" as="geometry" />
        </mxCell>
        <mxCell id="TJ7lbxjONWvBOBtqPhef-18" value="&lt;font style=&quot;font-size: 18px;&quot;&gt;$$R_2$$&lt;/font&gt;" style="text;html=1;align=center;verticalAlign=middle;whiteSpace=wrap;rounded=0;strokeWidth=2;" vertex="1" parent="1">
          <mxGeometry x="450" y="380" width="60" height="30" as="geometry" />
        </mxCell>
        <mxCell id="TJ7lbxjONWvBOBtqPhef-19" value="&lt;font style=&quot;font-size: 18px;&quot;&gt;$$A_E$$&lt;/font&gt;" style="text;html=1;align=center;verticalAlign=middle;whiteSpace=wrap;rounded=0;strokeWidth=2;" vertex="1" parent="1">
          <mxGeometry x="270" y="145" width="60" height="30" as="geometry" />
        </mxCell>
        <mxCell id="TJ7lbxjONWvBOBtqPhef-20" value="&lt;font style=&quot;font-size: 18px;&quot;&gt;$$V_o$$&lt;/font&gt;" style="text;html=1;align=center;verticalAlign=middle;whiteSpace=wrap;rounded=0;strokeWidth=2;" vertex="1" parent="1">
          <mxGeometry x="450" y="220" width="60" height="30" as="geometry" />
        </mxCell>
        <mxCell id="TJ7lbxjONWvBOBtqPhef-21" value="&lt;font style=&quot;font-size: 18px;&quot;&gt;$$V_g$$&lt;/font&gt;" style="text;html=1;align=center;verticalAlign=middle;whiteSpace=wrap;rounded=0;strokeWidth=2;" vertex="1" parent="1">
          <mxGeometry x="360" y="130" width="60" height="30" as="geometry" />
        </mxCell>
        <mxCell id="TJ7lbxjONWvBOBtqPhef-22" value="" style="pointerEvents=1;verticalLabelPosition=bottom;shadow=0;dashed=0;align=center;html=1;verticalAlign=top;shape=mxgraph.electrical.resistors.resistor_1;direction=south;strokeWidth=2;" vertex="1" parent="1">
          <mxGeometry x="480" y="120" width="20" height="80" as="geometry" />
        </mxCell>
        <mxCell id="TJ7lbxjONWvBOBtqPhef-24" value="" style="endArrow=none;html=1;rounded=0;strokeWidth=2;" edge="1" parent="1" source="TJ7lbxjONWvBOBtqPhef-26">
          <mxGeometry width="50" height="50" relative="1" as="geometry">
            <mxPoint x="490" y="200" as="sourcePoint" />
            <mxPoint x="440" y="200" as="targetPoint" />
          </mxGeometry>
        </mxCell>
        <mxCell id="TJ7lbxjONWvBOBtqPhef-25" value="" style="endArrow=none;html=1;rounded=0;strokeWidth=2;" edge="1" parent="1" source="TJ7lbxjONWvBOBtqPhef-28">
          <mxGeometry width="50" height="50" relative="1" as="geometry">
            <mxPoint x="490" y="120" as="sourcePoint" />
            <mxPoint x="440" y="120" as="targetPoint" />
          </mxGeometry>
        </mxCell>
        <mxCell id="TJ7lbxjONWvBOBtqPhef-27" value="" style="endArrow=none;html=1;rounded=0;strokeWidth=2;" edge="1" parent="1" target="TJ7lbxjONWvBOBtqPhef-26">
          <mxGeometry width="50" height="50" relative="1" as="geometry">
            <mxPoint x="490" y="200" as="sourcePoint" />
            <mxPoint x="440" y="200" as="targetPoint" />
          </mxGeometry>
        </mxCell>
        <mxCell id="TJ7lbxjONWvBOBtqPhef-26" value="" style="shape=waypoint;sketch=0;fillStyle=solid;size=6;pointerEvents=1;points=[];fillColor=none;resizable=0;rotatable=0;perimeter=centerPerimeter;snapToPoint=1;strokeWidth=2;" vertex="1" parent="1">
          <mxGeometry x="430" y="190" width="20" height="20" as="geometry" />
        </mxCell>
        <mxCell id="TJ7lbxjONWvBOBtqPhef-29" value="" style="endArrow=none;html=1;rounded=0;strokeWidth=2;" edge="1" parent="1" target="TJ7lbxjONWvBOBtqPhef-28">
          <mxGeometry width="50" height="50" relative="1" as="geometry">
            <mxPoint x="490" y="120" as="sourcePoint" />
            <mxPoint x="440" y="120" as="targetPoint" />
          </mxGeometry>
        </mxCell>
        <mxCell id="TJ7lbxjONWvBOBtqPhef-28" value="" style="shape=waypoint;sketch=0;fillStyle=solid;size=6;pointerEvents=1;points=[];fillColor=none;resizable=0;rotatable=0;perimeter=centerPerimeter;snapToPoint=1;strokeWidth=2;" vertex="1" parent="1">
          <mxGeometry x="430" y="110" width="20" height="20" as="geometry" />
        </mxCell>
        <mxCell id="TJ7lbxjONWvBOBtqPhef-30" value="&lt;font style=&quot;font-size: 18px;&quot;&gt;$$r_o$$&lt;/font&gt;" style="text;html=1;align=center;verticalAlign=middle;whiteSpace=wrap;rounded=0;" vertex="1" parent="1">
          <mxGeometry x="490" y="145" width="60" height="30" as="geometry" />
        </mxCell>
        <mxCell id="TJ7lbxjONWvBOBtqPhef-31" value="&lt;font style=&quot;font-size: 18px;&quot;&gt;$$V_i$$&lt;/font&gt;" style="text;html=1;align=center;verticalAlign=middle;whiteSpace=wrap;rounded=0;" vertex="1" parent="1">
          <mxGeometry x="410" y="50" width="60" height="30" as="geometry" />
        </mxCell>
        <mxCell id="TJ7lbxjONWvBOBtqPhef-33" value="" style="endArrow=none;html=1;rounded=0;strokeWidth=3;" edge="1" parent="1">
          <mxGeometry width="50" height="50" relative="1" as="geometry">
            <mxPoint x="425" y="80" as="sourcePoint" />
            <mxPoint x="455" y="80" as="targetPoint" />
          </mxGeometry>
        </mxCell>
        <mxCell id="TJ7lbxjONWvBOBtqPhef-34" value="&lt;font style=&quot;font-size: 12px;&quot;&gt;$$\beta=\frac{R_2}{R_1+R_2}$$&lt;/font&gt;" style="text;html=1;align=center;verticalAlign=middle;whiteSpace=wrap;rounded=0;strokeWidth=2;" vertex="1" parent="1">
          <mxGeometry x="220" y="390" width="60" height="30" as="geometry" />
        </mxCell>
        <mxCell id="TJ7lbxjONWvBOBtqPhef-36" value="" style="curved=1;endArrow=classic;html=1;rounded=0;fillColor=#f8cecc;strokeColor=#b85450;strokeWidth=2;dashed=1;" edge="1" parent="1">
          <mxGeometry width="50" height="50" relative="1" as="geometry">
            <mxPoint x="430" y="230" as="sourcePoint" />
            <mxPoint x="370" y="180" as="targetPoint" />
            <Array as="points">
              <mxPoint x="410" y="280" />
              <mxPoint x="350" y="320" />
              <mxPoint x="280" y="330" />
              <mxPoint x="240" y="320" />
              <mxPoint x="250" y="230" />
            </Array>
          </mxGeometry>
        </mxCell>
        <mxCell id="TJ7lbxjONWvBOBtqPhef-37" value="&lt;font style=&quot;font-size: 18px;&quot;&gt;$$V_\text{ref}$$&lt;/font&gt;" style="text;html=1;align=center;verticalAlign=middle;whiteSpace=wrap;rounded=0;" vertex="1" parent="1">
          <mxGeometry x="150" y="90" width="60" height="30" as="geometry" />
        </mxCell>
      </root>
    </mxGraphModel>
  </diagram>
</mxfile>
